<mxfile host="app.diagrams.net" modified="2021-04-30T09:25:45.149Z" agent="5.0 (Windows NT 10.0; Win64; x64) AppleWebKit/537.36 (KHTML, like Gecko) Chrome/89.0.4389.128 Safari/537.36" etag="gUID1BZIM83UP8Rg-mKa" version="13.9.6" type="github">
  <diagram id="kgpKYQtTHZ0yAKxKKP6v" name="Page-1">
    <mxGraphModel dx="1422" dy="794" grid="1" gridSize="10" guides="1" tooltips="1" connect="1" arrows="1" fold="1" page="1" pageScale="1" pageWidth="850" pageHeight="1100" math="0" shadow="0">
      <root>
        <mxCell id="0" />
        <mxCell id="1" parent="0" />
        <mxCell id="3nuBFxr9cyL0pnOWT2aG-1" value="全布ERP" style="shape=umlLifeline;perimeter=lifelinePerimeter;container=1;collapsible=0;recursiveResize=0;rounded=0;shadow=0;strokeWidth=1;" parent="1" vertex="1">
          <mxGeometry x="120" y="80" width="100" height="330" as="geometry" />
        </mxCell>
        <mxCell id="3nuBFxr9cyL0pnOWT2aG-2" value="" style="points=[];perimeter=orthogonalPerimeter;rounded=0;shadow=0;strokeWidth=1;" parent="3nuBFxr9cyL0pnOWT2aG-1" vertex="1">
          <mxGeometry x="45" y="70" width="10" height="210" as="geometry" />
        </mxCell>
        <mxCell id="3nuBFxr9cyL0pnOWT2aG-3" value="付款申请" style="verticalAlign=bottom;startArrow=oval;endArrow=block;startSize=8;shadow=0;strokeWidth=1;" parent="3nuBFxr9cyL0pnOWT2aG-1" target="3nuBFxr9cyL0pnOWT2aG-2" edge="1">
          <mxGeometry relative="1" as="geometry">
            <mxPoint x="-15" y="70" as="sourcePoint" />
          </mxGeometry>
        </mxCell>
        <mxCell id="3nuBFxr9cyL0pnOWT2aG-4" value="" style="points=[];perimeter=orthogonalPerimeter;rounded=0;shadow=0;strokeWidth=1;" parent="3nuBFxr9cyL0pnOWT2aG-1" vertex="1">
          <mxGeometry x="50" y="120" width="10" height="80" as="geometry" />
        </mxCell>
        <mxCell id="3nuBFxr9cyL0pnOWT2aG-5" value="金融中台" style="shape=umlLifeline;perimeter=lifelinePerimeter;container=1;collapsible=0;recursiveResize=0;rounded=0;shadow=0;strokeWidth=1;" parent="1" vertex="1">
          <mxGeometry x="370" y="80" width="100" height="300" as="geometry" />
        </mxCell>
        <mxCell id="3nuBFxr9cyL0pnOWT2aG-8" value="发起CBS付款" style="verticalAlign=bottom;endArrow=block;entryX=0;entryY=0;shadow=0;strokeWidth=1;" parent="1" source="3nuBFxr9cyL0pnOWT2aG-2" target="3nuBFxr9cyL0pnOWT2aG-6" edge="1">
          <mxGeometry relative="1" as="geometry">
            <mxPoint x="275" y="160" as="sourcePoint" />
          </mxGeometry>
        </mxCell>
        <mxCell id="3nuBFxr9cyL0pnOWT2aG-9" value="回调cbs付款单审核状态" style="verticalAlign=bottom;endArrow=block;entryX=1;entryY=0;shadow=0;strokeWidth=1;" parent="1" source="3nuBFxr9cyL0pnOWT2aG-6" target="3nuBFxr9cyL0pnOWT2aG-4" edge="1">
          <mxGeometry relative="1" as="geometry">
            <mxPoint x="240" y="200" as="sourcePoint" />
          </mxGeometry>
        </mxCell>
        <mxCell id="oh7v_DH19V99MWHNHjvm-1" value="回调付款单审核状态回调" style="verticalAlign=bottom;endArrow=block;entryX=1;entryY=0;shadow=0;strokeWidth=1;" edge="1" parent="1" source="3nuBFxr9cyL0pnOWT2aG-5">
          <mxGeometry relative="1" as="geometry">
            <mxPoint x="345" y="250" as="sourcePoint" />
            <mxPoint x="180" y="250" as="targetPoint" />
          </mxGeometry>
        </mxCell>
        <mxCell id="oh7v_DH19V99MWHNHjvm-2" value="全布ERP修改付款单状态为支付中" style="text;html=1;align=center;verticalAlign=middle;resizable=0;points=[];autosize=1;" vertex="1" parent="1">
          <mxGeometry x="190" y="200" width="200" height="20" as="geometry" />
        </mxCell>
        <mxCell id="oh7v_DH19V99MWHNHjvm-5" style="edgeStyle=orthogonalEdgeStyle;rounded=0;orthogonalLoop=1;jettySize=auto;html=1;" edge="1" parent="1" source="3nuBFxr9cyL0pnOWT2aG-6">
          <mxGeometry relative="1" as="geometry">
            <mxPoint x="420" y="410" as="targetPoint" />
          </mxGeometry>
        </mxCell>
        <mxCell id="3nuBFxr9cyL0pnOWT2aG-6" value="" style="points=[];perimeter=orthogonalPerimeter;rounded=0;shadow=0;strokeWidth=1;" parent="1" vertex="1">
          <mxGeometry x="415" y="160" width="10" height="200" as="geometry" />
        </mxCell>
        <mxCell id="oh7v_DH19V99MWHNHjvm-3" value="&lt;span style=&quot;color: rgb(0 , 0 , 0) ; font-family: &amp;#34;helvetica&amp;#34; ; font-size: 12px ; font-style: normal ; font-weight: 400 ; letter-spacing: normal ; text-align: center ; text-indent: 0px ; text-transform: none ; word-spacing: 0px ; background-color: rgb(248 , 249 , 250) ; display: inline ; float: none&quot;&gt;全布ERP修改付款单状态为支付成功/支付失败（并修改实付金额）&lt;/span&gt;" style="text;whiteSpace=wrap;html=1;" vertex="1" parent="1">
          <mxGeometry x="190" y="250" width="220" height="40" as="geometry" />
        </mxCell>
        <mxCell id="oh7v_DH19V99MWHNHjvm-4" value="回调付款单付款凭证" style="verticalAlign=bottom;endArrow=block;entryX=1;entryY=0;shadow=0;strokeWidth=1;" edge="1" parent="1">
          <mxGeometry relative="1" as="geometry">
            <mxPoint x="419.75" y="320" as="sourcePoint" />
            <mxPoint x="180.25" y="320" as="targetPoint" />
          </mxGeometry>
        </mxCell>
        <mxCell id="oh7v_DH19V99MWHNHjvm-6" value="全布ERP同步保存对应的付款凭证（pdf）" style="text;html=1;align=center;verticalAlign=middle;resizable=0;points=[];autosize=1;" vertex="1" parent="1">
          <mxGeometry x="175" y="320" width="240" height="20" as="geometry" />
        </mxCell>
      </root>
    </mxGraphModel>
  </diagram>
</mxfile>
